solid pixelfacet normal 1 0 0 
outer loop 
vertex 150 1640 150 
vertex 150 1340 150 
vertex 150 1640 -150 
endloop 
endfacet 
facet normal 1 0 0 
outer loop 
vertex 150 1340 150 
vertex 150 1340 -150 
vertex 150 1640 -150 
endloop 
endfacet 
facet normal -1 0 0 
outer loop 
vertex -150 1640 -150 
vertex -150 1340 -150 
vertex -150 1640 150 
endloop 
endfacet 
facet normal -1 0 0 
outer loop 
vertex -150 1340 -150 
vertex -150 1340 150 
vertex -150 1640 150 
endloop 
endfacet 
facet normal 0 1 0 
outer loop 
vertex -150 1640 -150 
vertex -150 1640 150 
vertex 150 1640 -150 
endloop 
endfacet 
facet normal 0 1 0 
outer loop 
vertex -150 1640 150 
vertex 150 1640 150 
vertex 150 1640 -150 
endloop 
endfacet 
facet normal 0 -1 0 
outer loop 
vertex -150 1340 150 
vertex -150 1340 -150 
vertex 150 1340 150 
endloop 
endfacet 
facet normal 0 -1 0 
outer loop 
vertex -150 1340 -150 
vertex 150 1340 -150 
vertex 150 1340 150 
endloop 
endfacet 
facet normal 0 0 1 
outer loop 
vertex -150 1640 150 
vertex -150 1340 150 
vertex 150 1640 150 
endloop 
endfacet 
facet normal 0 0 1 
outer loop 
vertex -150 1340 150 
vertex 150 1340 150 
vertex 150 1640 150 
endloop 
endfacet 
facet normal 0 0 -1 
outer loop 
vertex 150 1640 -150 
vertex 150 1340 -150 
vertex -150 1640 -150 
endloop 
endfacet 
facet normal 0 0 -1 
outer loop 
vertex 150 1340 -150 
vertex -150 1340 -150 
vertex -150 1640 -150 
endloop 
endfacet 
endsolid